<svg xmlns="http://www.w3.org/2000/svg" viewBox="0 0 608 608"><defs><style>.cls-1{fill:none;stroke:#000;stroke-linecap:round;stroke-miterlimit:10;stroke-width:5px;}</style></defs><title>Pattern 02</title><g id="Layer_2" data-name="Layer 2"><g id="Layer_1-2" data-name="Layer 1"><circle class="cls-1" cx="304" cy="304" r="75"/><path class="cls-1" d="M307.16,62.5l26-45a10,10,0,0,0-8.66-15h-52a10,10,0,0,0-8.66,15l26,45A10,10,0,0,0,307.16,62.5Z"/><path class="cls-1" d="M135.47,131,122,80.81a10,10,0,0,0-16.73-4.48L68.55,113.07A10,10,0,0,0,73,129.8l50.19,13.45A10,10,0,0,0,135.47,131Z"/><path class="cls-1" d="M62.5,300.84l-45-26a10,10,0,0,0-15,8.66v52a10,10,0,0,0,15,8.66l45-26A10,10,0,0,0,62.5,300.84Z"/><path class="cls-1" d="M131,472.53,80.81,486a10,10,0,0,0-4.48,16.73l36.74,36.74A10,10,0,0,0,129.8,535l13.45-50.19A10,10,0,0,0,131,472.53Z"/><path class="cls-1" d="M300.84,545.5l-26,45a10,10,0,0,0,8.66,15h52a10,10,0,0,0,8.66-15l-26-45A10,10,0,0,0,300.84,545.5Z"/><path class="cls-1" d="M472.53,477,486,527.19a10,10,0,0,0,16.73,4.48l36.74-36.74A10,10,0,0,0,535,478.2l-50.19-13.45A10,10,0,0,0,472.53,477Z"/><path class="cls-1" d="M545.5,307.16l45,26a10,10,0,0,0,15-8.66v-52a10,10,0,0,0-15-8.66l-45,26A10,10,0,0,0,545.5,307.16Z"/><path class="cls-1" d="M477,135.47,527.19,122a10,10,0,0,0,4.48-16.73L494.93,68.55A10,10,0,0,0,478.2,73l-13.45,50.19A10,10,0,0,0,477,135.47Z"/><path class="cls-1" d="M233.86,123.7l4.24-32.95a10,10,0,0,0-13.77-10.51L193.67,93a10,10,0,0,0-2.21,17.18l26.41,20.15A10,10,0,0,0,233.86,123.7Z"/><path class="cls-1" d="M127.61,225.81l-20.29-26.3a10,10,0,0,0-17.17,2.31L77.52,232.55a10,10,0,0,0,10.59,13.71L121,241.83A10,10,0,0,0,127.61,225.81Z"/><path class="cls-1" d="M124.7,373.14,91.75,368.9a10,10,0,0,0-10.51,13.77L94,413.33a10,10,0,0,0,17.18,2.21l20.15-26.41A10,10,0,0,0,124.7,373.14Z"/><path class="cls-1" d="M226.81,479.39l-26.3,20.29a10,10,0,0,0,2.31,17.17l30.73,12.63a10,10,0,0,0,13.71-10.59L242.83,486A10,10,0,0,0,226.81,479.39Z"/><path class="cls-1" d="M374.14,482.3l-4.24,32.95a10,10,0,0,0,13.77,10.51L414.33,513a10,10,0,0,0,2.21-17.18l-26.41-20.15A10,10,0,0,0,374.14,482.3Z"/><path class="cls-1" d="M480.39,380.19l20.29,26.3a10,10,0,0,0,17.17-2.31l12.63-30.73a10,10,0,0,0-10.59-13.71L487,364.17A10,10,0,0,0,480.39,380.19Z"/><path class="cls-1" d="M483.3,232.86l32.95,4.24a10,10,0,0,0,10.51-13.77L514,192.67a10,10,0,0,0-17.18-2.21l-20.15,26.41A10,10,0,0,0,483.3,232.86Z"/><path class="cls-1" d="M381.19,126.61l26.3-20.29a10,10,0,0,0-2.31-17.17L374.45,76.52a10,10,0,0,0-13.71,10.59L365.17,120A10,10,0,0,0,381.19,126.61Z"/><path class="cls-1" d="M304,93c0,11-10,11-10,22s10,11,10,22-10,11-10,22,10,11,10,22-10,11-10,22"/><path class="cls-1" d="M154.8,154.8c7.78,7.78.7,14.85,8.48,22.62s14.85.71,22.63,8.49.7,14.85,8.48,22.63,14.85.7,22.63,8.48.71,14.85,8.49,22.63"/><path class="cls-1" d="M93,304c11,0,11,10,22,10s11-10,22-10,11,10,22,10,11-10,22-10,11,10,22,10"/><path class="cls-1" d="M154.8,453.2c7.78-7.78,14.85-.7,22.62-8.48s.71-14.85,8.49-22.63,14.85-.7,22.63-8.48.7-14.85,8.48-22.63,14.85-.71,22.63-8.49"/><path class="cls-1" d="M304,515c0-11,10-11,10-22s-10-11-10-22,10-11,10-22-10-11-10-22,10-11,10-22"/><path class="cls-1" d="M453.2,453.2c-7.78-7.78-.7-14.85-8.48-22.62s-14.85-.71-22.63-8.49-.7-14.85-8.48-22.63-14.85-.7-22.63-8.48-.71-14.85-8.49-22.63"/><path class="cls-1" d="M515,304c-11,0-11-10-22-10s-11,10-22,10-11-10-22-10-11,10-22,10-11-10-22-10"/><path class="cls-1" d="M453.2,154.8c-7.78,7.78-14.85.7-22.62,8.48s-.71,14.85-8.49,22.63-14.85.7-22.63,8.48-.7,14.85-8.48,22.63-14.85.71-22.63,8.49"/></g></g></svg>