<svg xmlns="http://www.w3.org/2000/svg" viewBox="0 0 579 579"><defs><style>.cls-1,.cls-2{fill:none;stroke:#000;stroke-linecap:round;stroke-width:5px;}.cls-1{stroke-miterlimit:10;}.cls-2{stroke-linejoin:round;}</style></defs><title>Pattern 01</title><g id="Layer_2" data-name="Layer 2"><g id="Layer_1-2" data-name="Layer 1"><circle class="cls-1" cx="289.5" cy="289.5" r="39.33"/><path class="cls-2" d="M309.36,55.77,289.9,206,270.44,55.77a185.92,185.92,0,0,1-1.18-20.89h0C269.26,17,278.5,2.5,289.9,2.5h0c11.41,0,20.65,14.5,20.65,32.38h0A183.59,183.59,0,0,1,309.36,55.77Z"/><path class="cls-2" d="M148.27,120.18l76.58,104.1L120.75,147.7a184.79,184.79,0,0,1-15.6-13.93h0c-12.65-12.65-16.37-29.43-8.3-37.5h0c8.06-8.06,24.85-4.34,37.49,8.3h0A184.73,184.73,0,0,1,148.27,120.18Z"/><path class="cls-2" d="M55.77,269.64,206,289.1,55.77,308.56a185.92,185.92,0,0,1-20.89,1.18h0C17,309.74,2.5,300.5,2.5,289.1h0c0-11.41,14.5-20.65,32.38-20.65h0A183.59,183.59,0,0,1,55.77,269.64Z"/><path class="cls-2" d="M120.18,430.73l104.1-76.58L147.7,458.25a184.79,184.79,0,0,1-13.93,15.6h0c-12.65,12.65-29.43,16.37-37.5,8.3h0c-8.06-8.06-4.34-24.85,8.3-37.49h0A184.73,184.73,0,0,1,120.18,430.73Z"/><path class="cls-2" d="M269.64,523.23,289.1,373.05l19.46,150.18a185.92,185.92,0,0,1,1.18,20.89h0c0,17.88-9.24,32.38-20.64,32.38h0c-11.41,0-20.65-14.5-20.65-32.38h0A183.59,183.59,0,0,1,269.64,523.23Z"/><path class="cls-2" d="M430.73,458.82l-76.58-104.1,104.1,76.58a184.79,184.79,0,0,1,15.6,13.93h0c12.65,12.65,16.37,29.43,8.3,37.5h0c-8.06,8.06-24.85,4.34-37.49-8.3h0A184.73,184.73,0,0,1,430.73,458.82Z"/><path class="cls-2" d="M523.23,309.36,373.05,289.9l150.18-19.46a185.92,185.92,0,0,1,20.89-1.18h0c17.88,0,32.38,9.24,32.38,20.64h0c0,11.41-14.5,20.65-32.38,20.65h0A183.59,183.59,0,0,1,523.23,309.36Z"/><path class="cls-2" d="M458.82,148.27l-104.1,76.58,76.58-104.1a184.79,184.79,0,0,1,13.93-15.6h0c12.65-12.65,29.43-16.37,37.5-8.3h0c8.06,8.06,4.34,24.85-8.3,37.49h0A184.73,184.73,0,0,1,458.82,148.27Z"/><path class="cls-1" d="M488.62,219.7c-10.38,3.64-13.69-5.8-24.07-2.16s-7.07,13.07-17.45,16.71-13.69-5.8-24.07-2.16-7.07,13.08-17.45,16.72-13.69-5.8-24.07-2.16"/><path class="cls-1" d="M380.94,99.34c-4.77,9.92-13.78,5.58-18.54,15.5s4.24,14.24-.53,24.15-13.77,5.58-18.54,15.5,4.24,14.24-.52,24.16-13.78,5.58-18.55,15.49"/><path class="cls-1" d="M219.7,90.38c3.64,10.38-5.8,13.69-2.16,24.07s13.07,7.07,16.71,17.45-5.8,13.69-2.16,24.07,13.08,7.07,16.72,17.45-5.8,13.69-2.16,24.07"/><path class="cls-1" d="M99.34,198.06c9.92,4.77,5.58,13.78,15.5,18.54s14.24-4.24,24.15.53,5.58,13.77,15.5,18.54,14.24-4.24,24.16.52,5.58,13.78,15.49,18.55"/><path class="cls-1" d="M90.38,359.3c10.38-3.64,13.69,5.8,24.07,2.16s7.07-13.07,17.45-16.71,13.69,5.8,24.07,2.16,7.07-13.08,17.45-16.72,13.69,5.8,24.07,2.16"/><path class="cls-1" d="M198.06,479.66c4.77-9.92,13.78-5.58,18.54-15.5s-4.24-14.24.53-24.15,13.77-5.58,18.54-15.5-4.24-14.24.52-24.16,13.78-5.58,18.55-15.49"/><path class="cls-1" d="M359.3,488.62c-3.64-10.38,5.8-13.69,2.16-24.07s-13.07-7.07-16.71-17.45,5.8-13.69,2.16-24.07-13.08-7.07-16.72-17.45,5.8-13.69,2.16-24.07"/><path class="cls-1" d="M479.66,380.94c-9.92-4.77-5.58-13.78-15.5-18.54s-14.24,4.24-24.15-.53-5.58-13.77-15.5-18.54-14.24,4.24-24.16-.52-5.58-13.78-15.49-18.55"/></g></g></svg>